#define cursor_crosshair_mask_width 32
#define cursor_crosshair_mask_height 32
#define cursor_crosshair_mask_x_hot 16
#define cursor_crosshair_mask_y_hot 16
static unsigned char cursor_crosshair_mask_bits[] = {
   0x00, 0xc0, 0x01, 0x00, 0x00, 0xe0, 0x03, 0x00, 0x00, 0xe0, 0x03, 0x00,
   0x00, 0xf0, 0x07, 0x00, 0x00, 0xfc, 0x1f, 0x00, 0x00, 0xff, 0x7f, 0x00,
   0x80, 0xff, 0xff, 0x00, 0xc0, 0xff, 0xff, 0x01, 0xe0, 0xff, 0xff, 0x03,
   0xe0, 0xff, 0xff, 0x03, 0xf0, 0xcf, 0xf9, 0x07, 0xf0, 0x87, 0xf0, 0x07,
   0xf8, 0xc3, 0xe1, 0x07, 0xfe, 0xe3, 0xe3, 0x3f, 0xff, 0xf7, 0xf7, 0xff,
   0xff, 0xff, 0xff, 0xff, 0xff, 0xf7, 0xf7, 0xff, 0xfe, 0xe3, 0xe3, 0x3f,
   0xf8, 0xc3, 0xe1, 0x0f, 0xf0, 0x87, 0xf0, 0x07, 0xf0, 0xcf, 0xf9, 0x07,
   0xe0, 0xff, 0xff, 0x03, 0xe0, 0xff, 0xff, 0x03, 0xc0, 0xff, 0xff, 0x01,
   0x80, 0xff, 0xff, 0x00, 0x00, 0xff, 0x7f, 0x00, 0x00, 0xfc, 0x1f, 0x00,
   0x00, 0xf0, 0x07, 0x00, 0x00, 0xe0, 0x03, 0x00, 0x00, 0xe0, 0x03, 0x00,
   0x00, 0xc0, 0x01, 0x00, 0x00, 0xc0, 0x01, 0x00 };
