<<<<<<< HEAD
#define cursor_crosshair2_width 32
#define cursor_crosshair2_height 32
#define cursor_crosshair2_x_hot 16
#define cursor_crosshair2_y_hot 16
static unsigned char cursor_crosshair2_bits[] = {
   0x00, 0x80, 0x00, 0x00, 0x00, 0x60, 0x01, 0x00, 0x00, 0x60, 0x03, 0x00,
   0x00, 0x60, 0x03, 0x00, 0x00, 0x78, 0x0f, 0x00, 0x00, 0x1e, 0x3c, 0x00,
   0x00, 0x07, 0x70, 0x00, 0x80, 0x41, 0xc1, 0x00, 0xc0, 0x78, 0x8f, 0x01,
   0x60, 0x7c, 0x1f, 0x03, 0x60, 0xc6, 0x31, 0x03, 0x30, 0x83, 0x60, 0x06,
   0x30, 0xc3, 0x61, 0x06, 0x1c, 0x63, 0x63, 0x1c, 0x9e, 0x77, 0xf7, 0x7c,
   0x01, 0x1c, 0x1c, 0x80, 0x9e, 0x77, 0xf7, 0x7c, 0x1c, 0x63, 0x63, 0x1c,
   0x30, 0xc3, 0x61, 0x06, 0x30, 0x83, 0x60, 0x06, 0x60, 0xc6, 0x31, 0x03,
   0x60, 0x7c, 0x1f, 0x03, 0xc0, 0x78, 0x8f, 0x01, 0x80, 0x41, 0xc1, 0x00,
   0x00, 0x07, 0x70, 0x00, 0x00, 0x1e, 0x3c, 0x00, 0x00, 0x78, 0x0f, 0x00,
   0x00, 0x60, 0x03, 0x00, 0x00, 0x60, 0x03, 0x00, 0x00, 0x40, 0x01, 0x00,
   0x00, 0x40, 0x01, 0x00, 0x00, 0x80, 0x00, 0x00 };
=======
#define cursor_crosshair2_width 32
#define cursor_crosshair2_height 32
#define cursor_crosshair2_x_hot 16
#define cursor_crosshair2_y_hot 16
static unsigned char cursor_crosshair2_bits[] = {
   0x00, 0x80, 0x00, 0x00, 0x00, 0x60, 0x01, 0x00, 0x00, 0x60, 0x03, 0x00,
   0x00, 0x60, 0x03, 0x00, 0x00, 0x78, 0x0f, 0x00, 0x00, 0x1e, 0x3c, 0x00,
   0x00, 0x07, 0x70, 0x00, 0x80, 0x41, 0xc1, 0x00, 0xc0, 0x78, 0x8f, 0x01,
   0x60, 0x7c, 0x1f, 0x03, 0x60, 0xc6, 0x31, 0x03, 0x30, 0x83, 0x60, 0x06,
   0x30, 0xc3, 0x61, 0x06, 0x1c, 0x63, 0x63, 0x1c, 0x9e, 0x77, 0xf7, 0x7c,
   0x01, 0x1c, 0x1c, 0x80, 0x9e, 0x77, 0xf7, 0x7c, 0x1c, 0x63, 0x63, 0x1c,
   0x30, 0xc3, 0x61, 0x06, 0x30, 0x83, 0x60, 0x06, 0x60, 0xc6, 0x31, 0x03,
   0x60, 0x7c, 0x1f, 0x03, 0xc0, 0x78, 0x8f, 0x01, 0x80, 0x41, 0xc1, 0x00,
   0x00, 0x07, 0x70, 0x00, 0x00, 0x1e, 0x3c, 0x00, 0x00, 0x78, 0x0f, 0x00,
   0x00, 0x60, 0x03, 0x00, 0x00, 0x60, 0x03, 0x00, 0x00, 0x40, 0x01, 0x00,
   0x00, 0x40, 0x01, 0x00, 0x00, 0x80, 0x00, 0x00 };
>>>>>>> d72fab28ca57042986d1990a54d846639220a228
