#define icon_crosshair_my_mask_width 32
#define icon_crosshair_my_mask_height 32
#define icon_crosshair_my_mask_x_hot 16
#define icon_crosshair_my_mask_y_hot 16
static unsigned char icon_crosshair_my_mask_bits[] = {
   0x00, 0x80, 0x00, 0x00, 0x00, 0xc0, 0x01, 0x00, 0x00, 0xc0, 0x01, 0x00,
   0x00, 0xc0, 0x01, 0x00, 0x00, 0xe0, 0x03, 0x00, 0x00, 0xf8, 0x0f, 0x00,
   0x00, 0xfe, 0x3f, 0x00, 0x00, 0xff, 0x7f, 0x00, 0x80, 0xff, 0xff, 0x00,
   0xc0, 0xc7, 0xf1, 0x01, 0xc0, 0x83, 0xe0, 0x01, 0xe0, 0x01, 0xc0, 0x03,
   0xe0, 0x81, 0xc0, 0x03, 0xf0, 0xc1, 0xc1, 0x07, 0xfe, 0xe3, 0xe3, 0x7f,
   0xff, 0xf7, 0xf7, 0xff, 0xfe, 0xe3, 0xe3, 0x7f, 0xf0, 0xc1, 0xc1, 0x07,
   0xe0, 0x81, 0xc0, 0x03, 0xe0, 0x01, 0xc0, 0x03, 0xc0, 0x83, 0xe0, 0x01,
   0xc0, 0xc7, 0xf1, 0x01, 0x80, 0xff, 0xff, 0x00, 0x00, 0xff, 0x7f, 0x00,
   0x00, 0xfe, 0x3f, 0x00, 0x00, 0xf8, 0x0f, 0x00, 0x00, 0xe0, 0x03, 0x00,
   0x00, 0xc0, 0x01, 0x00, 0x00, 0xc0, 0x01, 0x00, 0x00, 0xc0, 0x01, 0x00,
   0x00, 0xc0, 0x01, 0x00, 0x00, 0x80, 0x00, 0x00 };
