#define icon_crosshair_my_width 32
#define icon_crosshair_my_height 32
#define icon_crosshair_my_x_hot 16
#define icon_crosshair_my_y_hot 16
static unsigned char icon_crosshair_my_bits[] = {
   0x00, 0x80, 0x00, 0x00, 0x00, 0x40, 0x01, 0x00, 0x00, 0x40, 0x01, 0x00,
   0x00, 0x40, 0x01, 0x00, 0x00, 0x60, 0x03, 0x00, 0x00, 0x18, 0x0c, 0x00,
   0x00, 0x06, 0x30, 0x00, 0x00, 0x41, 0x41, 0x00, 0x80, 0x78, 0x8f, 0x00,
   0x40, 0x44, 0x11, 0x01, 0x40, 0x82, 0x20, 0x01, 0x20, 0x01, 0x40, 0x02,
   0x20, 0x81, 0x40, 0x02, 0x10, 0x41, 0x41, 0x04, 0x9e, 0x63, 0xe3, 0x7c,
   0x01, 0x14, 0x14, 0x80, 0x9e, 0x63, 0xe3, 0x7c, 0x10, 0x41, 0x41, 0x04,
   0x20, 0x81, 0x40, 0x02, 0x20, 0x01, 0x40, 0x02, 0x40, 0x82, 0x20, 0x01,
   0x40, 0x44, 0x11, 0x01, 0x80, 0x78, 0x8f, 0x00, 0x00, 0x41, 0x41, 0x00,
   0x00, 0x06, 0x30, 0x00, 0x00, 0x18, 0x0c, 0x00, 0x00, 0x60, 0x03, 0x00,
   0x00, 0x40, 0x01, 0x00, 0x00, 0x40, 0x01, 0x00, 0x00, 0x40, 0x01, 0x00,
   0x00, 0x40, 0x01, 0x00, 0x00, 0x80, 0x00, 0x00 };
